<svg width="204" height="204" viewBox="0 0 204 204" fill="none" xmlns="http://www.w3.org/2000/svg">
<path d="M102 204C158.347 204 204 158.347 204 102C204 45.6535 158.347 0 102 0C45.6535 0 0 45.6535 0 102C0 158.347 45.6535 204 102 204ZM46.6735 99.79L145.019 61.8715C149.583 60.2225 153.569 62.985 152.09 69.887L152.099 69.8785L135.354 148.767C134.113 154.36 130.79 155.72 126.14 153.085L100.64 134.291L88.3405 146.141C86.9805 147.501 85.833 148.648 83.198 148.648L85.0085 122.698L132.268 80.002C134.325 78.1915 131.809 77.1715 129.098 78.9735L70.6945 115.744L45.5175 107.89C40.052 106.156 39.933 102.425 46.6735 99.79V99.79Z" fill="white"/>
</svg>
